<svg width="40" height="40" viewBox="0 0 147 131" fill="none" xmlns="http://www.w3.org/2000/svg">
<path d="M145.602 114.711L114.02 59.9398L82.439 5.16871C78.4663 -1.72136 68.5356 -1.72136 64.5629 5.16871L32.9804 59.9398L1.39801 114.711C0.0506474 117.048 -0.268367 119.585 0.208278 121.915C1.34172 127.452 6.87005 130.935 12.3984 129.782L70.2808 117.717C72.4275 116.99 74.7563 116.988 76.9031 117.717L134.598 129.78C140.126 130.935 145.658 127.454 146.792 121.915C147.268 119.585 146.949 117.048 145.602 114.711ZM80.7369 93.8321C79.9957 95.1097 78.9354 96.1713 77.6613 96.9135C76.5841 97.5411 75.3756 97.9112 74.1315 97.9939C72.8873 98.0691 71.645 97.8248 70.5228 97.2818C69.714 96.8835 68.9841 96.3386 68.3704 95.6772L80.7351 93.8321C80.7351 93.8321 80.7369 93.8283 80.7388 93.8264H80.7688L80.7369 93.8321ZM81.921 89.5725L81.6808 90.745L66.6609 92.9828L66.3963 92.3796L65.8127 89.9746V89.2775L81.8854 86.8819H81.9192V87.9773C81.9586 88.509 81.9586 89.0408 81.9192 89.5725H81.921ZM90.769 68.8403C90.5363 70.0691 89.7144 72.4328 89.7144 72.4328C89.7144 72.4328 90.6658 70.1011 89.6562 72.555C88.6466 75.0089 86.9164 77.3951 85.2444 79.7494C84.3868 80.9369 83.5386 82.115 82.8237 83.2593C82.3658 83.9864 81.542 84.396 80.6863 84.3246L67.1769 86.337C66.0322 86.4948 64.9495 85.7789 64.6436 84.6628C64.3039 83.6802 63.8873 82.7238 63.3975 81.8069C62.9885 81.0215 62.4949 80.2812 61.9263 79.6029C61.2245 78.8024 60.5152 77.9889 59.8227 77.0513C59.0289 75.9878 58.344 74.8454 57.7791 73.6447C57.1861 72.3877 56.7245 71.0706 56.4017 69.7178C56.0827 68.3593 55.927 66.967 55.9364 65.5709C55.9364 64.1166 56.1203 62.6661 56.4806 61.2569C56.8728 59.75 57.4357 58.2919 58.1563 56.9128L58.2539 56.7418C59.1884 55.1541 60.3669 53.7242 61.7481 52.5067C63.1254 51.3023 64.6924 50.3365 66.385 49.6451L66.522 49.5962C67.7831 49.0945 69.1004 48.7413 70.444 48.5459C71.8683 48.3467 73.3114 48.3129 74.7432 48.4482C76.1431 48.576 77.5224 48.8578 78.8604 49.2881C80.1927 49.7146 81.4744 50.2895 82.6792 51.0017H82.6979C84.278 51.9336 85.7023 53.1079 86.9183 54.4815C88.108 55.8268 89.0632 57.3619 89.7425 59.0266C90.1272 59.9811 90.4312 60.9657 90.6489 61.9709C91.1556 64.2294 91.195 66.5668 90.7671 68.8422L90.769 68.8403Z" fill="white"/>
</svg>
